<?xml version="1.0" encoding="UTF-8"?><svg id="Capa_2" xmlns="http://www.w3.org/2000/svg" xmlns:xlink="http://www.w3.org/1999/xlink" viewBox="0 0 221.79 43.48"><defs><style>.cls-1{fill:url(#Degradado_sin_nombre_63);}.cls-1,.cls-2,.cls-3{stroke-width:0px;}.cls-4{filter:url(#drop-shadow-1);}.cls-5{fill:#848484;font-family:CenturyGothic-Bold, 'Century Gothic';font-size:37.3px;font-weight:700;}.cls-2{fill:url(#Degradado_sin_nombre_63-2);}.cls-3{fill:url(#Degradado_sin_nombre_63-3);}</style><filter id="drop-shadow-1" filterUnits="userSpaceOnUse"><feOffset dx=".56" dy=".56"/><feGaussianBlur result="blur" stdDeviation=".42"/><feFlood flood-color="#000" flood-opacity=".1"/><feComposite in2="blur" operator="in"/><feComposite in="SourceGraphic"/></filter><linearGradient id="Degradado_sin_nombre_63" x1="4.95" y1="33.43" x2="32.89" y2="2.95" gradientUnits="userSpaceOnUse"><stop offset=".04" stop-color="#774adf"/><stop offset=".15" stop-color="#9648be"/><stop offset=".3" stop-color="#bc4596"/><stop offset=".45" stop-color="#d8447a"/><stop offset=".57" stop-color="#e94369"/><stop offset=".66" stop-color="#ef4363"/><stop offset=".72" stop-color="#ef535e"/><stop offset=".84" stop-color="#f07f52"/><stop offset="1" stop-color="#f2c141"/></linearGradient><linearGradient id="Degradado_sin_nombre_63-2" x1="4.95" y1="33.43" x2="32.89" y2="2.95" xlink:href="#Degradado_sin_nombre_63"/><linearGradient id="Degradado_sin_nombre_63-3" x1="5.31" y1="33.77" x2="33.26" y2="3.28" xlink:href="#Degradado_sin_nombre_63"/></defs><g id="Capa_1-2"><g class="cls-4"><path class="cls-1" d="m18.2,9.51c-5.21,0-9.45,4.24-9.45,9.45s4.24,9.45,9.45,9.45,9.45-4.24,9.45-9.45-4.24-9.45-9.45-9.45Zm0,15.3c-3.22,0-5.85-2.62-5.85-5.85s2.62-5.85,5.85-5.85,5.85,2.62,5.85,5.85-2.62,5.85-5.85,5.85Z"/><path class="cls-2" d="m25.93.76h-15.45C4.7.76,0,5.46,0,11.24v15.46c0,5.78,4.7,10.48,10.48,10.48h15.45c5.78,0,10.48-4.7,10.48-10.48v-15.46c0-5.78-4.7-10.48-10.48-10.48Zm6.87,25.93c0,3.79-3.08,6.87-6.87,6.87h-15.45c-3.79,0-6.87-3.08-6.87-6.87v-15.46c0-3.79,3.08-6.87,6.87-6.87h15.45c3.79,0,6.87,3.08,6.87,6.87v15.46Z"/><path class="cls-3" d="m27.78,6.78c-1.36,0-2.47,1.11-2.47,2.47s1.11,2.47,2.47,2.47,2.47-1.11,2.47-2.47-1.11-2.47-2.47-2.47Z"/></g><text class="cls-5" transform="translate(40.52 32.04)"><tspan x="0" y="0">Instagram</tspan></text></g></svg>